<?xml version="1.0" encoding="UTF-8"?> <svg xmlns="http://www.w3.org/2000/svg" xmlns:xlink="http://www.w3.org/1999/xlink" width="427px" height="97px" viewBox="0 0 427 97"> <!-- Generator: Sketch 52.6 (67491) - http://www.bohemiancoding.com/sketch --> <title>Instagram Ready Size Copy</title> <desc>Created with Sketch.</desc> <defs> <polygon id="path-1" points="0 0.177745442 99.2359234 0.177745442 99.2359234 96.4113282 0 96.4113282"></polygon> </defs> <g id="Instagram-Ready-Size-Copy" stroke="none" stroke-width="1" fill="none" fill-rule="evenodd"> <g id="Group-2"> <g id="black-mochimo-logo"> <g id="Group" transform="translate(120.400000, 19.600000)" fill="#000000"> <path d="M44.6308454,1.34376732 L44.6308454,45.6880886 L38.8781443,45.6880886 L38.8781443,10.3022161 L24.9072989,45.6880886 L19.7867629,45.6880886 L5.75270102,10.4301939 L5.75270102,45.6880886 L-1.77635684e-15,45.6880886 L-1.77635684e-15,1.34376732 L6.89059794,1.34376732 L22.4418557,38.5853185 L37.7402474,1.34376732 L44.6308454,1.34376732 Z M85.4370927,2.9434903 C88.7454392,4.90582698 91.3478255,7.64665831 93.2443299,11.1660665 C95.1408342,14.6854747 96.0890721,18.6634127 96.0890721,23.1 C96.0890721,27.5365873 95.1408342,31.5145253 93.2443299,35.0339335 C91.3478255,38.5533417 88.7454392,41.2941731 85.4370927,43.2565097 C82.1287463,45.2188464 78.4095465,46.2 74.2793814,46.2 C70.1492165,46.2 66.4089446,45.2188464 63.0584536,43.2565097 C59.7079626,41.2941731 57.0845043,38.5533417 55.188,35.0339335 C53.2914957,31.5145253 52.3432577,27.5365873 52.3432577,23.1 C52.3432577,18.6634127 53.2914957,14.6854747 55.188,11.1660665 C57.0845043,7.64665831 59.7079626,4.90582698 63.0584536,2.9434903 C66.4089446,0.981153628 70.1492165,4.4408921e-16 74.2793814,4.4408921e-16 C78.4095465,4.4408921e-16 82.1287463,0.981153628 85.4370927,2.9434903 Z M66.0296288,7.58268699 C63.6063177,9.01177999 61.7098419,11.059405 60.3401443,13.7256233 C58.9704468,16.3918416 58.2856082,19.5166026 58.2856082,23.1 C58.2856082,26.6407379 58.9704468,29.7548342 60.3401443,32.4423823 C61.7098419,35.1299304 63.6063177,37.18822 66.0296288,38.617313 C68.4529399,40.046406 71.20283,40.7609418 74.2793814,40.7609418 C77.3137883,40.7609418 80.0426064,40.0357413 82.4659175,38.5853185 C84.8892286,37.1348958 86.7857045,35.0766062 88.155402,32.4103878 C89.5250996,29.7441696 90.2099381,26.6407379 90.2099381,23.1 C90.2099381,19.5166026 89.5250996,16.3918416 88.155402,13.7256233 C86.7857045,11.059405 84.8892286,9.01177999 82.4659175,7.58268699 C80.0426064,6.15359396 77.3137883,5.43905817 74.2793814,5.43905817 C71.20283,5.43905817 68.4529399,6.15359396 66.0296288,7.58268699 Z M137.053361,4.19127423 C140.593502,6.90015204 143.037849,10.6008076 144.386474,15.2933518 L138.317691,15.2933518 C137.179788,12.3071873 135.346528,9.92895623 132.817856,8.15858726 C130.289183,6.3882183 127.191606,5.50304709 123.525031,5.50304709 C120.617058,5.50304709 118.014671,6.21758288 115.717794,7.6466759 C113.420916,9.07576891 111.608728,11.1233939 110.281175,13.7896122 C108.953622,16.4558304 108.289856,19.5805915 108.289856,23.163989 C108.289856,26.7047269 108.953622,29.7974937 110.281175,32.4423823 C111.608728,35.0872708 113.420916,37.1242311 115.717794,38.553324 C118.014671,39.9824172 120.617058,40.6969529 123.525031,40.6969529 C127.191606,40.6969529 130.289183,39.8117817 132.817856,38.0414128 C135.346528,36.2710438 137.179788,33.8928127 138.317691,30.9066482 L144.386474,30.9066482 C143.037849,35.5991924 140.593502,39.299848 137.053361,42.0087258 C133.513219,44.7176036 129.024893,46.0720222 123.588247,46.0720222 C119.415938,46.0720222 115.728346,45.1015333 112.525361,43.1605264 C109.322376,41.2195193 106.825349,38.5106821 105.034206,35.0339335 C103.243063,31.5571848 102.347505,27.6005762 102.347505,23.163989 C102.347505,18.6847422 103.243063,14.6961394 105.034206,11.1980609 C106.825349,7.69998251 109.322376,4.98048062 112.525361,3.03947368 C115.728346,1.09846675 119.415938,0.127977836 123.588247,0.127977836 C129.024893,0.127977836 133.513219,1.48239643 137.053361,4.19127423 Z M186.299011,0.575900276 L186.299011,45.6880886 L180.483093,45.6880886 L180.483093,24.8277008 L157.851588,24.8277008 L157.851588,45.6880886 L152.098887,45.6880886 L152.098887,0.575900276 L157.851588,0.575900276 L157.851588,20.0925208 L180.483093,20.0925208 L180.483093,0.575900276 L186.299011,0.575900276 Z M201.281319,0.575900276 L201.281319,45.6880886 L195.528619,45.6880886 L195.528619,0.575900276 L201.281319,0.575900276 Z M255.141774,1.34376732 L255.141774,45.6880886 L249.389073,45.6880886 L249.389073,10.3022161 L235.418226,45.6880886 L230.297691,45.6880886 L216.263629,10.4301939 L216.263629,45.6880886 L210.510927,45.6880886 L210.510927,1.34376732 L217.401526,1.34376732 L232.952783,38.5853185 L248.251175,1.34376732 L255.141774,1.34376732 Z M295.94802,2.9434903 C299.256367,4.90582698 301.858753,7.64665831 303.755257,11.1660665 C305.651762,14.6854747 306.6,18.6634127 306.6,23.1 C306.6,27.5365873 305.651762,31.5145253 303.755257,35.0339335 C301.858753,38.5533417 299.256367,41.2941731 295.94802,43.2565097 C292.639675,45.2188464 288.920474,46.2 284.790309,46.2 C280.660145,46.2 276.919873,45.2188464 273.569381,43.2565097 C270.21889,41.2941731 267.595432,38.5533417 265.698927,35.0339335 C263.802424,31.5145253 262.854186,27.5365873 262.854186,23.1 C262.854186,18.6634127 263.802424,14.6854747 265.698927,11.1660665 C267.595432,7.64665831 270.21889,4.90582698 273.569381,2.9434903 C276.919873,0.981153628 280.660145,4.4408921e-16 284.790309,4.4408921e-16 C288.920474,4.4408921e-16 292.639675,0.981153628 295.94802,2.9434903 Z M276.540557,7.58268699 C274.117246,9.01177999 272.22077,11.059405 270.851073,13.7256233 C269.481374,16.3918416 268.796536,19.5166026 268.796536,23.1 C268.796536,26.6407379 269.481374,29.7548342 270.851073,32.4423823 C272.22077,35.1299304 274.117246,37.18822 276.540557,38.617313 C278.963868,40.046406 281.713758,40.7609418 284.790309,40.7609418 C287.824716,40.7609418 290.553535,40.0357413 292.976845,38.5853185 C295.400157,37.1348958 297.296632,35.0766062 298.66633,32.4103878 C300.036027,29.7441696 300.720867,26.6407379 300.720867,23.1 C300.720867,19.5166026 300.036027,16.3918416 298.66633,13.7256233 C297.296632,11.059405 295.400157,9.01177999 292.976845,7.58268699 C290.553535,6.15359396 287.824716,5.43905817 284.790309,5.43905817 C281.713758,5.43905817 278.963868,6.15359396 276.540557,7.58268699 Z" id="Shape"></path> </g> <g id="Clipped"> <mask id="mask-2" fill="white"> <use xlink:href="#path-1"></use> </mask> <g id="Shape"></g> <path d="M81.6431069,78.3474294 C80.5429514,79.4605935 77.6285048,81.8946493 76.1809321,82.9323446 C71.3170874,86.4037185 65.8935145,88.8187185 59.8330097,90.1962118 C56.0500195,91.0452353 54.7954564,91.1582497 49.4104855,91.1582497 C44.9905631,91.1395712 43.9869126,91.082781 41.9410097,90.7244932 C33.0818641,89.1585166 25.2649709,85.2716872 18.5482331,79.1398513 L16.9462524,77.6870779 L17.6024855,77.6117978 C17.9499029,77.5738747 32.6958447,77.5174618 50.375534,77.5174618 L82.4923495,77.4795388 L81.6431069,78.3474294 Z M75.1193786,24.7836728 L75.8142136,25.5004372 L75.9300195,38.9904763 C75.9879224,46.405281 76.1037281,56.9143044 76.161631,62.3293759 L76.2774369,72.1967263 L68.3833398,72.1967263 L60.4699417,72.1967263 L60.3541359,61.5746884 C60.2769321,55.7445388 60.2190291,45.2357041 60.2190291,38.2357888 L60.2190291,25.5193044 L60.933165,24.8023513 L61.647301,24.0853981 L68.0359224,24.0853981 L74.4245436,24.0853981 L75.1193786,24.7836728 Z M55.0849709,24.8212185 L55.7991069,25.5383603 L55.9149126,48.8770712 L56.0307184,72.1967263 L49.1595728,72.1967263 L42.2691262,72.1967263 L42.2691262,48.8580154 L42.2691262,25.5193044 L42.9832621,24.8023513 L43.6973981,24.0853981 L49.024466,24.0853981 L54.351534,24.0853981 L55.0849709,24.8212185 Z M37.3473786,24.8780087 L38.0808155,25.6702419 L37.9650097,30.7455154 C37.8878058,33.556915 37.8299029,44.0282041 37.8299029,54.0278134 L37.8299029,72.1967263 L30.6692427,72.1967263 L23.4892816,72.1967263 L23.6243883,48.8393368 L23.7787962,25.5004372 L24.473631,24.7836728 L25.168466,24.0853981 L30.9008543,24.0853981 L36.6332427,24.0853981 L37.3473786,24.8780087 Z M45.3572816,6.38816497 C45.2414757,6.63324974 44.0062136,9.36899193 42.5779417,12.4820779 L39.9916117,18.1422342 L37.0385631,18.2554372 C35.3979805,18.330906 31.827301,18.3875076 29.0865631,18.4063747 C24.1455145,18.4252419 24.1069126,18.4252419 23.1225631,18.9157888 C22.5821359,19.1799294 21.6556893,19.840281 21.0766602,20.3685622 C19.1658641,22.1422666 19.3781748,19.4629372 19.1272621,46.6128201 L18.8956505,70.555281 L18.1815145,71.3665701 L17.4673786,72.1780478 L14.9582524,72.1967263 L12.4298252,72.1967263 L11.4454757,70.5366025 C7.37297088,63.8196951 5.21126214,56.367156 5.21126214,49.1223446 C5.2305631,42.0282821 6.38862136,36.5188747 9.0135534,30.9909775 C13.5685825,21.4439919 20.7871457,14.4067196 30.5920388,9.89727318 C35.089165,7.84074974 41.4005826,6.08610131 44.6238447,5.99176537 C45.5116893,5.97289818 45.5309903,5.99176537 45.3572816,6.38816497 Z M54.5831457,5.99176537 C62.3421359,6.80305443 70.2941359,9.85953881 76.5283495,14.4253981 C80.0411262,16.9913356 84.2101359,21.2932432 86.6999612,24.9155544 C94.130835,35.7641872 96.0030291,49.4806326 91.7568155,61.9707106 C90.830369,64.6687185 88.9967767,68.6685622 87.7422136,70.7439529 L86.9508738,72.0080544 L84.6347573,72.0080544 L82.2993398,72.0080544 L81.508,71.1969541 L80.7359612,70.4043435 L80.5236505,46.4809384 L80.3113398,22.557156 L79.8288155,21.7269997 C79.2111845,20.7272275 78.1110291,19.7838682 76.6634564,19.0291807 L75.563301,18.463165 L60.6243495,18.3688291 C52.4214369,18.3120388 45.6660971,18.2177029 45.6274952,18.1801571 C45.5116893,18.0667654 46.5346407,15.5008279 48.387534,11.1613747 C49.2367767,9.18032006 50.0860195,7.18039818 50.2790291,6.67117279 L50.6264466,5.78422631 L51.668699,5.78422631 C52.2284272,5.78422631 53.5408931,5.87856224 54.5831457,5.99176537 Z M45.743301,0.312741926 C32.425631,1.33157006 20.0344078,7.57660912 11.4454757,17.5762185 C5.44287379,24.5759451 1.40897088,33.556915 0.289514568,42.3865701 C-0.096504856,45.4243759 -0.096504856,51.0467978 0.289514568,54.0842263 C2.85654369,74.3287185 18.2587184,90.8752419 38.6019417,95.2903525 C42.4814369,96.1203201 45.1642719,96.4033279 49.3139805,96.4223837 C53.4636893,96.4223837 55.8763107,96.1959775 59.5434952,95.4599685 C74.0385243,92.5546103 86.159534,83.8000467 93.455301,70.9703592 C96.2732427,66.027156 98.2998447,59.7066481 99.0139805,53.7068826 C99.3420971,50.9147275 99.3034952,45.0470321 98.9174757,42.2922342 C97.1031845,29.0097342 90.0969321,17.4441481 79.0374757,9.46332787 C75.0807767,6.59551537 68.3254369,3.44469506 63.1141748,2.01078881 C57.6906019,0.539336854 51.1475728,-0.102336192 45.743301,0.312741926 Z" id="Shape" fill="#000000" mask="url(#mask-2)"></path> </g> </g> <text id="Post-Quantum-Currenc" font-family="NunitoSans-Bold, Nunito Sans" font-size="22.4" font-weight="bold" letter-spacing="0.861538589" fill="#000000"> <tspan x="153.258645" y="88.8">Post-Quantum Currency</tspan> </text> </g> </g> </svg>